# xmcd
#
# Track frame offsets: 
#        150
#        27896
#        46325
#        68179
#        86803
#        107502
#        132731
#        154931
#        182683
#        203558
#
# Disc length: 2966 seconds
#
# Revision: 0
# Processed by: cddbd v1.5.2PL0 Copyright (c) Steve Scherf et al.
# Submitted via: ExactAudioCopy v1.0b3
#
DISCID=860b940a
DTITLE=Justin Rutledge - Daredevil
DYEAR=2014
DGENRE=Alt. Country
TTITLE0=Looking for a Place to Happen
TTITLE1=Springtime in Vienna
TTITLE2=Thugs
TTITLE3=Grace, Too
TTITLE4=Escape Is At Hand for the Travellin' Man
TTITLE5=Locked in the Trunk of a Car
TTITLE6=Courage (for Hugh MacLennan)
TTITLE7=Long Time Running
TTITLE8=Put It Off
TTITLE9=Fiddler's Green
EXTD=
EXTT0=
EXTT1=
EXTT2=
EXTT3=
EXTT4=
EXTT5=
EXTT6=
EXTT7=
EXTT8=
EXTT9=
PLAYORDER=
